inDegrees=yes
name=ik_lifting_orientations
DataType=double
version=3
OpenSimVersion=4.5-2024-01-10-34fd6af
endheader
time	pelvis_tilt	pelvis_list	pelvis_rotation	pelvis_tx	pelvis_ty	pelvis_tz	hip_flexion_r	hip_adduction_r	hip_rotation_r	knee_angle_r	knee_angle_r_beta	ankle_angle_r	subtalar_angle_r	mtp_angle_r	hip_flexion_l	hip_adduction_l	hip_rotation_l	knee_angle_l	knee_angle_l_beta	ankle_angle_l	subtalar_angle_l	mtp_angle_l	lumbar_extension	lumbar_bending	lumbar_rotation	arm_flex_r	arm_add_r	arm_rot_r	elbow_flex_r	pro_sup_r	wrist_flex_r	wrist_dev_r	arm_flex_l	arm_add_l	arm_rot_l	elbow_flex_l	pro_sup_l	wrist_flex_l	wrist_dev_l
0.82	6.9674947674734	36.29004916862585	-101.3488369836634	0	0.9399999998679526	0	45.45783012839593	-10.40174950342945	0	60.49956111218419	1.055916537419137	-5.124324681409328	0	0	45.45783012839593	-10.40174950342945	0	60.49956111218419	1.055916537419137	-5.124324681409328	0	0	57.92049186280363	-29.40247188044145	89.90077030641714	24.22600488652009	28.19464542779585	-76.02345514373162	5.570275689808485	1.237186244692316	0	0	0	-11.08651477136265	0	88.80608035065092	1.237186244692316	0	0
0.83	6.882240254875084	37.39335192451026	-100.8918591029306	0	0.9399999998679526	0	45.4496027059727	-10.37487539948534	0	60.49236090517513	1.055790870100003	-5.113506528371514	0	0	45.4496027059727	-10.37487539948534	0	60.49236090517513	1.055790870100003	-5.113506528371514	0	0	59.49192727242336	-30.43216274955498	89.91988073535032	25.20625169365156	28.88894130759414	-76.31184746329089	6.975924839654792	1.222071048248326	0	0	0	-11.12112390352059	0	88.82066463300278	1.222071048248326	0	0
0.84	6.896043867890244	38.4854901235998	-100.4797117395806	0	0.9399999998679526	0	45.42407062214621	-10.32235168248117	0	60.46986162335688	1.055398183552941	-5.095081758280107	0	0	45.42407062214621	-10.32235168248117	0	60.46986162335688	1.055398183552941	-5.095081758280107	0	0	61.24626348898446	-31.78528407240375	89.92651968779072	26.24547946191911	29.91856289547897	-76.40041671904433	8.926210415499906	1.171034423521494	0	0	0	-11.24485302506511	0	88.8699088853387	1.171034423521494	0	0
0.85	6.935450691552106	39.58956951924773	-100.1136267227132	0	0.9399999998679526	0	45.40227820567693	-10.28127138402943	0	60.4505169222565	1.055060554825925	-5.081011273254453	0	0	45.40227820567693	-10.28127138402943	0	60.4505169222565	1.055060554825925	-5.081011273254453	0	0	62.7584076432822	-32.74379069888538	89.93074228020815	26.7738174633166	30.63421451481124	-76.61809045577705	10.57792787012255	1.1268354020662	0	0	0	-11.35297922935193	0	88.91255570281206	1.1268354020662	0	0
0.86	7.011814292206907	40.57811683090392	-99.95455048327457	0	0.9399999998679526	0	45.37107920970229	-10.23131037992159	0	60.42234223564463	1.05456881377883	-5.064818892197638	0	0	45.37107920970229	-10.23131037992159	0	60.42234223564463	1.05456881377883	-5.064818892197638	0	0	63.79845417878811	-33.10039004064706	89.93459429948552	26.65022623590821	30.9569924672871	-76.23717363257214	12.18206782320791	1.061973697183968	0	0	0	-11.51415958759587	0	88.97513964133425	1.061973697183968	0	0
0.87	6.636640770404824	39.22091866207795	-99.30397642952249	0	0.9399999998679526	0	45.36076227113021	-10.21293745966196	0	60.41255878150957	1.054398060291956	-5.058530004547847	0	0	45.36076227113021	-10.21293745966196	0	60.41255878150957	1.054398060291956	-5.058530004547847	0	0	62.37790371165274	-33.51867506613792	89.93794430860245	26.59272248616343	31.35736486496666	-75.91402139761107	13.68593816936314	1.040693736059674	0	0	0	-11.56688141235515	0	88.9956722972326	1.040693736059674	0	0
0.88	6.207005580946968	37.24328875177439	-98.48832415197188	0	0.9399999998679526	0	45.35472342808892	-10.20385128938092	0	60.40650313285798	1.054292369284642	-5.055517244380775	0	0	45.35472342808892	-10.20385128938092	0	60.40650313285798	1.054292369284642	-5.055517244380775	0	0	60.51813866855066	-34.39225907186293	89.94160515515883	27.02005459648824	31.83993492972354	-75.4224196188803	15.21002841400874	1.027692045099876	0	0	0	-11.6001490564181	0	89.00821742040625	1.027692045099876	0	0
0.89	5.866535085835896	35.3566915229787	-97.61566151133579	0	0.9399999998679526	0	45.34906610114881	-10.19549036952282	0	60.40082967140838	1.054193348702361	-5.052768401301829	0	0	45.34906610114881	-10.19549036952282	0	60.40082967140838	1.054193348702361	-5.052768401301829	0	0	58.93336847475008	-35.62619026579402	89.94454484763048	27.76589117270692	32.46405850426094	-75.24928574805057	16.6918541632153	1.015489949885218	0	0	0	-11.63140060547361	0	89.01999102666872	1.015489949885218	0	0
